<?xml version="1.0" standalone="no"?>
<!DOCTYPE svg PUBLIC "-//W3C//DTD SVG 20010904//EN"
 "http://www.w3.org/TR/2001/REC-SVG-20010904/DTD/svg10.dtd">
<svg version="1.0" xmlns="http://www.w3.org/2000/svg"
 width="248.000000pt" height="248.000000pt" viewBox="0 0 248.000000 248.000000"
 preserveAspectRatio="xMidYMid meet">
<metadata>
Created by potrace 1.14, written by Peter Selinger 2001-2017
</metadata>
<g transform="translate(0.000000,248.000000) scale(0.100000,-0.100000)"
fill="#000000" stroke="none">
<path d="M374 2286 c-4 -9 -14 -16 -23 -15 -38 3 -43 -1 -39 -34 2 -24 -3 -40
-18 -56 -12 -13 -36 -50 -52 -82 -19 -36 -47 -72 -73 -92 -23 -17 -57 -56 -76
-85 l-33 -53 71 -33 c40 -18 66 -35 60 -37 -7 -3 -16 -22 -21 -43 -7 -31 -5
-41 11 -57 11 -11 24 -17 29 -14 5 3 14 -14 20 -37 45 -177 88 -279 189 -447
186 -310 386 -488 654 -584 16 -6 15 -11 -11 -54 -15 -26 -35 -61 -44 -78 -13
-23 -25 -31 -50 -33 -55 -4 -75 -11 -81 -27 -8 -19 21 -48 41 -40 13 5 13 3
-1 -13 -21 -23 -22 -68 -1 -76 10 -4 27 5 46 24 44 44 52 41 48 -21 -1 -19 5
-28 19 -32 30 -7 44 17 47 82 1 43 10 72 29 104 36 62 48 71 74 55 18 -11 26
-10 50 3 l28 17 50 -53 c42 -45 48 -57 40 -77 -16 -44 -16 -88 2 -97 21 -11
41 -3 41 15 0 20 5 18 35 -12 21 -21 29 -23 40 -14 18 15 18 37 1 69 -22 39
-10 54 25 34 27 -16 30 -16 45 -1 22 22 5 52 -38 67 -61 22 -81 36 -115 77
l-34 42 82 12 c188 27 375 115 582 272 183 139 267 257 270 377 1 58 2 61 27
59 41 -2 49 1 60 21 13 24 -3 69 -31 91 -28 22 -15 50 21 50 34 0 44 13 36 44
-5 21 -58 55 -108 70 -15 4 -16 10 -7 36 15 41 5 72 -28 91 -35 20 -84 9 -111
-26 -26 -33 -32 -32 -32 8 0 46 -28 71 -69 62 -33 -7 -65 -41 -86 -91 -14 -35
-22 -37 -156 -49 -36 -3 -90 -12 -120 -20 -30 -8 -61 -15 -70 -15 -9 0 -63 22
-120 49 -57 26 -126 54 -154 62 -53 14 -183 18 -225 6 -76 -21 -76 -21 -120
24 -23 24 -49 57 -57 74 -62 120 -167 269 -237 337 -20 19 -36 40 -36 45 0 6
-7 17 -16 24 -9 7 -20 23 -25 36 -5 13 -15 24 -24 24 -18 2 -25 4 -47 13 -9 4
-22 8 -30 10 -7 1 -17 4 -23 8 -5 3 -36 9 -67 13 -49 6 -59 5 -64 -9z"/>
</g>
</svg>
